ffmpeg started on 2016-11-23 at 03:52:04
Report written to "Output/NVENCh264/results/ffmpeg/Tsintelmedium6000k.log"
Command line:
Tools/ffmpeg/ffmpeg -i Output/NVENCh264/encoded/sintelmedium6000k.mkv -c:v rawvideo -pix_fmt yuv420p Output/NVENCh264/transcoded/sintelmedium6000k.yuv
ffmpeg version N-82227-gdb23fde Copyright (c) 2000-2016 the FFmpeg developers
  built with gcc 5.4.0 (Ubuntu 5.4.0-6ubuntu1~16.04.2) 20160609
  configuration: --prefix=/home/jaroslav/ffmpeg_build --pkg-config-flags=--static --extra-cflags=-I/home/jaroslav/ffmpeg_build/include --extra-ldflags=-L/home/jaroslav/ffmpeg_build/lib --bindir=/home/jaroslav/bin --enable-gpl --enable-libass --enable-libfdk-aac --enable-libfreetype --enable-libmp3lame --enable-libopus --enable-libtheora --enable-libvorbis --enable-libvpx --enable-libx264 --enable-libx265 --enable-nvenc --enable-libmfx --enable-libxvid --enable-libgsm --enable-libopencore-amrnb --enable-version3 --enable-nonfree
  libavutil      55. 35.100 / 55. 35.100
  libavcodec     57. 66.101 / 57. 66.101
  libavformat    57. 57.100 / 57. 57.100
  libavdevice    57.  2.100 / 57.  2.100
  libavfilter     6. 66.100 /  6. 66.100
  libswscale      4.  3.100 /  4.  3.100
  libswresample   2.  4.100 /  2.  4.100
  libpostproc    54.  2.100 / 54.  2.100
Input #0, matroska,webm, from 'Output/NVENCh264/encoded/sintelmedium6000k.mkv':
  Metadata:
    ENCODER         : Lavf57.57.100
  Duration: 00:00:20.83, start: 0.000000, bitrate: 5199 kb/s
    Stream #0:0: Video: h264 (Main), yuv420p(progressive), 4096x1744 [SAR 1:1 DAR 256:109], 24 fps, 24 tbr, 1k tbn, 48 tbc (default)
    Metadata:
      ENCODER         : Lavc57.66.101 h264_nvenc
      DURATION        : 00:00:20.834000000
Output #0, rawvideo, to 'Output/NVENCh264/transcoded/sintelmedium6000k.yuv':
  Metadata:
    encoder         : Lavf57.57.100
    Stream #0:0: Video: rawvideo (I420 / 0x30323449), yuv420p, 4096x1744 [SAR 1:1 DAR 256:109], q=2-31, 200 kb/s, 24 fps, 24 tbn, 24 tbc (default)
    Metadata:
      DURATION        : 00:00:20.834000000
      encoder         : Lavc57.66.101 rawvideo
Stream mapping:
  Stream #0:0 -> #0:0 (h264 (native) -> rawvideo (native))
Press [q] to stop, [?] for help
frame=   20 fps=0.0 q=-0.0 size=  209280kB time=00:00:00.83 bitrate=2057306.9kbits/s speed= 1.6x    frame=   41 fps= 39 q=-0.0 size=  429024kB time=00:00:01.70 bitrate=2057306.5kbits/s speed=1.64x    frame=   62 fps= 40 q=-0.0 size=  648768kB time=00:00:02.58 bitrate=2057306.4kbits/s speed=1.65x    frame=   83 fps= 40 q=-0.0 size=  868512kB time=00:00:03.45 bitrate=2057306.3kbits/s speed=1.65x    frame=  104 fps= 40 q=-0.0 size= 1088256kB time=00:00:04.33 bitrate=2057306.3kbits/s speed=1.66x    frame=  125 fps= 40 q=-0.0 size= 1308000kB time=00:00:05.20 bitrate=2057306.2kbits/s speed=1.66x    frame=  145 fps= 40 q=-0.0 size= 1517280kB time=00:00:06.04 bitrate=2057306.0kbits/s speed=1.66x    frame=  165 fps= 40 q=-0.0 size= 1726560kB time=00:00:06.87 bitrate=2057306.1kbits/s speed=1.66x    frame=  186 fps= 40 q=-0.0 size= 1946304kB time=00:00:07.75 bitrate=2057306.1kbits/s speed=1.66x    frame=  207 fps= 40 q=-0.0 size= 2166048kB time=00:00:08.62 bitrate=2057306.1kbits/s speed=1.66x    frame=  228 fps= 40 q=-0.0 size= 2385792kB time=00:00:09.50 bitrate=2057306.1kbits/s speed=1.66x    frame=  249 fps= 40 q=-0.0 size= 2605536kB time=00:00:10.37 bitrate=2057306.1kbits/s speed=1.66x    frame=  269 fps= 40 q=-0.0 size= 2814816kB time=00:00:11.20 bitrate=2057306.2kbits/s speed=1.66x    frame=  290 fps= 40 q=-0.0 size= 3034560kB time=00:00:12.08 bitrate=2057306.2kbits/s speed=1.66x    frame=  306 fps= 39 q=-0.0 size= 3201984kB time=00:00:12.75 bitrate=2057306.1kbits/s speed=1.61x    frame=  326 fps= 39 q=-0.0 size= 3411264kB time=00:00:13.58 bitrate=2057306.2kbits/s speed=1.61x    frame=  346 fps= 39 q=-0.0 size= 3620544kB time=00:00:14.41 bitrate=2057306.1kbits/s speed=1.61x    frame=  366 fps= 39 q=-0.0 size= 3829824kB time=00:00:15.25 bitrate=2057306.1kbits/s speed=1.61x    frame=  386 fps= 39 q=-0.0 size= 4039104kB time=00:00:16.08 bitrate=2057306.2kbits/s speed=1.61x    frame=  406 fps= 39 q=-0.0 size= 4248384kB time=00:00:16.91 bitrate=2057306.1kbits/s speed=1.61x    frame=  426 fps= 39 q=-0.0 size= 4457664kB time=00:00:17.75 bitrate=2057306.1kbits/s speed=1.62x    frame=  446 fps= 39 q=-0.0 size= 4666944kB time=00:00:18.58 bitrate=2057306.1kbits/s speed=1.62x    frame=  466 fps= 39 q=-0.0 size= 4876224kB time=00:00:19.41 bitrate=2057306.1kbits/s speed=1.62x    frame=  486 fps= 39 q=-0.0 size= 5085504kB time=00:00:20.25 bitrate=2057306.1kbits/s speed=1.62x    frame=  495 fps= 38 q=-0.0 size= 5179680kB time=00:00:20.62 bitrate=2057306.1kbits/s speed=1.58x    frame=  500 fps= 38 q=-0.0 Lsize= 5232000kB time=00:00:20.83 bitrate=2057306.1kbits/s speed=1.58x    
video:5232000kB audio:0kB subtitle:0kB other streams:0kB global headers:0kB muxing overhead: 0.000000%
